<svg viewBox="351.267 143.2431 396.3297 224.5138" width="5000" height="2832.412004449831" xmlns="http://www.w3.org/2000/svg" xmlns:xlink="http://www.w3.org/1999/xlink" preserveAspectRatio="none"><defs></defs><style>.aD6z1nYkhcolor {fill:#F1F1F1;fill-opacity:1;}.aD6z1nYkhcolor-floo {flood-color:#F1F1F1;flood-opacity:1;}.aLgOaV3zRcolors-0 {fill:#0A5A84;fill-opacity:1;}.aLgOaV3zRcolors-1 {fill:#B8020D;fill-opacity:1;}.aLgOaV3zRcolors-2 {fill:#222222;fill-opacity:1;}.av2NW-7AaV0filter-floo {flood-color:#F1F1F1;flood-opacity:0.5;}.text {fill:#F1F1F1;fill-opacity:1;}</style><defs>
      <filter
        x="-1000"
        y="-1000"
        width="5000"
        height="5000"
        id="v2NW-7AaV"
        filterUnits="userSpaceOnUse"
        primitiveUnits="userSpaceOnUse"
        color-interpolation-filters="sRGB">
        <feMerge><feMergeNode in="SourceGraphic" /></feMerge>
      </filter></defs><g opacity="1" transform="rotate(0 419.0772 143.2431)">
<svg width="225.8455" height="224.5138" x="419.0772" y="143.2431" version="1.1" preserveAspectRatio="none" viewBox="4.466000080108643 5 90.53399658203124 90">
  <g transform="matrix(1 0 0 1 0 0)" class="aLgOaV3zRcolors-0"><path d="M49.97,5C37.846,5,26.406,9.439,17.805,18.041C9.199,26.646,4.466,37.792,4.466,49.914  c0.002,12.044,4.673,23.367,13.139,31.949C26.184,90.327,37.51,95,49.554,95c12.12,0,23.534-4.731,32.142-13.338  C90.299,73.062,95,61.622,95,49.497V5H49.97z M71.701,35.056c-4.34,0-7.855-3.516-7.855-7.855c0-4.339,3.516-7.855,7.855-7.855  c4.338,0,7.855,3.516,7.855,7.855C79.557,31.54,76.039,35.056,71.701,35.056z"></path></g>
</svg>
</g><g opacity="1" transform="rotate(0 430.7087 228.4202)">
<svg width="316.888" height="72.1596" x="430.7087" y="228.4202" version="1.1" preserveAspectRatio="none" viewBox="3.4 -28.56 165.11999999999998 37.6">
  <g transform="matrix(1 0 0 1 0 0)" class="aD6z1nYkhcolor"><path d="M6.56 0.48Q4.92 0.48 4.16-0.54Q3.40-1.56 3.40-3.56L3.40-3.56L3.40-28.56L6.28-28.56L6.28-3.32Q6.28-2.64 6.54-2.30Q6.80-1.96 7.20-1.96L7.20-1.96Q7.52-1.96 7.92-2.04L7.92-2.04L8.32 0.20Q7.56 0.48 6.56 0.48L6.56 0.48Z M28.80 0.48Q26.40 0.48 24.36-0.74Q22.32-1.96 21.10-4.26Q19.88-6.56 19.88-9.68L19.88-9.68Q19.88-12.80 21.10-15.12Q22.32-17.44 24.36-18.66Q26.40-19.88 28.80-19.88L28.80-19.88Q31.20-19.88 33.24-18.66Q35.28-17.44 36.50-15.12Q37.72-12.80 37.72-9.68L37.72-9.68Q37.72-6.56 36.50-4.26Q35.28-1.96 33.24-0.74Q31.20 0.48 28.80 0.48L28.80 0.48ZM28.80-1.96Q30.52-1.96 31.86-2.92Q33.20-3.88 33.96-5.64Q34.72-7.40 34.72-9.68L34.72-9.68Q34.72-11.96 33.96-13.72Q33.20-15.48 31.86-16.46Q30.52-17.44 28.80-17.44L28.80-17.44Q27.08-17.44 25.74-16.46Q24.40-15.48 23.66-13.72Q22.92-11.96 22.92-9.68L22.92-9.68Q22.92-6.20 24.56-4.08Q26.20-1.96 28.80-1.96L28.80-1.96Z M58.52 0.48Q55.96 0.48 53.90-0.74Q51.84-1.96 50.66-4.24Q49.48-6.52 49.48-9.68L49.48-9.68Q49.48-12.80 50.74-15.12Q52-17.44 54.12-18.66Q56.24-19.88 58.72-19.88L58.72-19.88Q61.88-19.88 64.36-17.56L64.36-17.56L62.84-15.64Q61.88-16.52 60.92-16.98Q59.96-17.44 58.84-17.44L58.84-17.44Q57.04-17.44 55.60-16.46Q54.16-15.48 53.34-13.72Q52.52-11.96 52.52-9.68L52.52-9.68Q52.52-6.20 54.24-4.08Q55.96-1.96 58.76-1.96L58.76-1.96Q61.28-1.96 63.48-3.96L63.48-3.96L64.76-2Q63.44-0.84 61.84-0.18Q60.24 0.48 58.52 0.48L58.52 0.48Z M81.16 0.48Q78.68 0.48 77.08-0.96Q75.48-2.40 75.48-5L75.48-5Q75.48-8.16 78.36-9.86Q81.24-11.56 87.56-12.24L87.56-12.24Q87.56-14.52 86.62-15.98Q85.68-17.44 83.40-17.44L83.40-17.44Q80.64-17.44 77.52-15.32L77.52-15.32L76.36-17.32Q80.20-19.88 83.88-19.88L83.88-19.88Q87.24-19.88 88.84-17.78Q90.44-15.68 90.44-12L90.44-12L90.44 0L88.04 0L87.80-2.36L87.68-2.36Q84.24 0.48 81.16 0.48L81.16 0.48ZM81.92-1.88Q83.32-1.88 84.66-2.54Q86-3.20 87.56-4.60L87.56-4.60L87.56-10.28Q82.56-9.68 80.46-8.44Q78.36-7.20 78.36-5.16L78.36-5.16Q78.36-3.52 79.36-2.70Q80.36-1.88 81.92-1.88L81.92-1.88Z M107.96 0.48Q106.32 0.48 105.56-0.54Q104.80-1.56 104.80-3.56L104.80-3.56L104.80-28.56L107.68-28.56L107.68-3.32Q107.68-2.64 107.94-2.30Q108.20-1.96 108.60-1.96L108.60-1.96Q108.92-1.96 109.32-2.04L109.32-2.04L109.72 0.20Q108.96 0.48 107.96 0.48L107.96 0.48Z M130.20 0.48Q127.80 0.48 125.76-0.74Q123.72-1.96 122.50-4.26Q121.28-6.56 121.28-9.68L121.28-9.68Q121.28-12.80 122.50-15.12Q123.72-17.44 125.76-18.66Q127.80-19.88 130.20-19.88L130.20-19.88Q132.60-19.88 134.64-18.66Q136.68-17.44 137.90-15.12Q139.12-12.80 139.12-9.68L139.12-9.68Q139.12-6.56 137.90-4.26Q136.68-1.96 134.64-0.74Q132.60 0.48 130.20 0.48L130.20 0.48ZM130.20-1.96Q131.92-1.96 133.26-2.92Q134.60-3.88 135.36-5.64Q136.12-7.40 136.12-9.68L136.12-9.68Q136.12-11.96 135.36-13.72Q134.60-15.48 133.26-16.46Q131.92-17.44 130.20-17.44L130.20-17.44Q128.48-17.44 127.14-16.46Q125.80-15.48 125.06-13.72Q124.32-11.96 124.32-9.68L124.32-9.68Q124.32-6.20 125.96-4.08Q127.60-1.96 130.20-1.96L130.20-1.96Z M158.88 9.04Q155.24 9.04 153.06 7.64Q150.88 6.24 150.88 3.80L150.88 3.80Q150.88 2.56 151.62 1.40Q152.36 0.24 153.72-0.68L153.72-0.68L153.72-0.84Q152.96-1.32 152.48-2.12Q152-2.92 152-4L152-4Q152-5.12 152.62-6.06Q153.24-7 154.12-7.60L154.12-7.60L154.12-7.76Q153.08-8.60 152.36-9.96Q151.64-11.32 151.64-12.96L151.64-12.96Q151.64-15 152.60-16.58Q153.56-18.16 155.20-19.02Q156.84-19.88 158.80-19.88L158.80-19.88Q160.12-19.88 161.48-19.40L161.48-19.40L168.20-19.40L168.20-17.12L164.08-17.12Q164.84-16.40 165.32-15.28Q165.80-14.16 165.80-12.92L165.80-12.92Q165.80-10.92 164.88-9.38Q163.96-7.84 162.36-7Q160.76-6.16 158.80-6.16L158.80-6.16Q157.20-6.16 155.84-6.84L155.84-6.84Q155.20-6.32 154.86-5.78Q154.52-5.24 154.52-4.44L154.52-4.44Q154.52-3.40 155.30-2.82Q156.08-2.24 157.96-2.24L157.96-2.24L161.84-2.24Q165.24-2.24 166.88-1.12Q168.52 0 168.52 2.36L168.52 2.36Q168.52 4.12 167.32 5.66Q166.12 7.20 163.92 8.12Q161.72 9.04 158.88 9.04L158.88 9.04ZM158.80-8.16Q160.60-8.16 161.86-9.50Q163.12-10.84 163.12-12.96L163.12-12.96Q163.12-15.12 161.88-16.42Q160.64-17.72 158.80-17.72L158.80-17.72Q156.96-17.72 155.70-16.42Q154.44-15.12 154.44-12.96L154.44-12.96Q154.44-10.84 155.70-9.50Q156.96-8.16 158.80-8.16L158.80-8.16ZM159.28 6.96Q161.12 6.96 162.58 6.38Q164.04 5.80 164.84 4.82Q165.64 3.84 165.64 2.76L165.64 2.76Q165.64 1.40 164.64 0.82Q163.64 0.24 161.60 0.24L161.60 0.24L158.04 0.24Q156.80 0.24 155.56-0.08L155.56-0.08Q153.44 1.40 153.44 3.40L153.44 3.40Q153.44 5.04 155 6Q156.56 6.96 159.28 6.96L159.28 6.96Z"/></g>
</svg>
</g><g opacity="1" transform="rotate(0 351.267 178.5798)">
<svg width="67.8102" height="37.8404" x="351.267" y="178.5798" version="1.1" preserveAspectRatio="none" viewBox="1 -28.56 52.04 29.04">
  <g transform="matrix(1 0 0 1 0 0)" class="text"><path d="M9.28 0.48Q6.40 0.48 5.16-1.16Q3.92-2.80 3.92-5.84L3.92-5.84L3.92-17L1-17L1-19.20L4.04-19.40L4.40-24.88L6.84-24.88L6.84-19.40L12.16-19.40L12.16-17L6.84-17L6.84-5.76Q6.84-3.84 7.54-2.88Q8.24-1.92 9.92-1.92L9.92-1.92Q10.76-1.92 12.16-2.44L12.16-2.44L12.76-0.24Q10.60 0.48 9.28 0.48L9.28 0.48Z M16.64 0L16.64-28.56L19.52-28.56L19.52-20.64L19.44-16.56Q21.04-18.16 22.56-19.02Q24.08-19.88 25.92-19.88L25.92-19.88Q28.96-19.88 30.40-17.98Q31.84-16.08 31.84-12.32L31.84-12.32L31.84 0L28.92 0L28.92-11.96Q28.92-14.76 28.02-16.04Q27.12-17.32 25.08-17.32L25.08-17.32Q23.64-17.32 22.40-16.58Q21.16-15.84 19.52-14.20L19.52-14.20L19.52 0L16.64 0Z M53.04-10.80Q53.04-9.76 52.92-9.04L52.92-9.04L39.52-9.04Q39.72-5.64 41.62-3.76Q43.52-1.88 46.28-1.88L46.28-1.88Q48.84-1.88 51.20-3.44L51.20-3.44L52.28-1.52Q50.84-0.60 49.32-0.06Q47.80 0.48 45.92 0.48L45.92 0.48Q43.36 0.48 41.26-0.74Q39.16-1.96 37.94-4.28Q36.72-6.60 36.72-9.68L36.72-9.68Q36.72-12.72 37.94-15.04Q39.16-17.36 41.16-18.62Q43.16-19.88 45.40-19.88L45.40-19.88Q49-19.88 51.02-17.46Q53.04-15.04 53.04-10.80L53.04-10.80ZM39.60-11.16L50.44-11.16Q50.44-14.24 49.12-15.88Q47.80-17.52 45.44-17.52L45.44-17.52Q43.28-17.52 41.60-15.88Q39.92-14.24 39.60-11.16L39.60-11.16Z"/></g>
</svg>
</g></svg>